<?xml version="1.0" encoding="utf-8"?>
<!-- Generator: Adobe Illustrator 26.5.0, SVG Export Plug-In . SVG Version: 6.00 Build 0)  -->
<svg version="1.1" id="Layer_1" xmlns="http://www.w3.org/2000/svg" xmlns:xlink="http://www.w3.org/1999/xlink" x="0px" y="0px"
	 viewBox="0 0 1024 616" style="enable-background:new 0 0 1024 616;" xml:space="preserve">
<style type="text/css">
	.st0{fill:#EDE7E9;}
	.st1{fill:#E53945;}
</style>
<rect y="-1" class="st0" width="1023.84" height="618"/>
<g>
	<g>
		<path class="st1" d="M776.05,88.37c0-31.38-5.49-61.47-15.55-89.38H264.53c-10.06,27.91-15.55,58-15.55,89.38
			c0,145.55,117.99,263.54,263.54,263.54S776.05,233.92,776.05,88.37z"/>
		<g>
			<defs>
				<path id="SVGID_1_" d="M350.88,491.5c-65.31,0-118.25-52.94-118.25-118.25s52.94-118.25,118.25-118.25
					s118.25,52.94,118.25,118.25S416.18,491.5,350.88,491.5z"/>
			</defs>
			<use xlink:href="#SVGID_1_"  style="overflow:visible;fill:#E53945;"/>
			<clipPath id="SVGID_00000104694376839224479810000017790429403359027346_">
				<use xlink:href="#SVGID_1_"  style="overflow:visible;"/>
			</clipPath>
		</g>
		<g>
			<defs>
				<circle id="SVGID_00000023264349928707369590000001685070827831805881_" cx="482.24" cy="486.69" r="89.73"/>
			</defs>
			<use xlink:href="#SVGID_00000023264349928707369590000001685070827831805881_"  style="overflow:visible;fill:#E53945;"/>
			<clipPath id="SVGID_00000009572623980666765120000001080709263879819932_">
				<use xlink:href="#SVGID_00000023264349928707369590000001685070827831805881_"  style="overflow:visible;"/>
			</clipPath>
		</g>
		<g>
			<defs>
				<circle id="SVGID_00000174587259429677710320000015617969939163758518_" cx="366.35" cy="533.4" r="62.17"/>
			</defs>
			<use xlink:href="#SVGID_00000174587259429677710320000015617969939163758518_"  style="overflow:visible;fill:#E53945;"/>
			<clipPath id="SVGID_00000181055704172567471920000007832339361793967766_">
				<use xlink:href="#SVGID_00000174587259429677710320000015617969939163758518_"  style="overflow:visible;"/>
			</clipPath>
		</g>
	</g>
</g>
<g>
	<g>
		<circle class="st1" cx="687.89" cy="363.73" r="78.94"/>
	</g>
	<path class="st0" d="M645.3,326.13c1.15,0,2.23,0.26,3.26,0.77c1.03,0.51,1.88,1.24,2.56,2.18l16.52,22.42v8.24h-0.66l-21.98-29.69
		c-0.76-1.06-1.47-1.9-2.11-2.53c-0.65-0.63-1.44-1.09-2.38-1.39H645.3z M642.39,359.17c0.41-0.23,0.73-0.64,0.97-1.21
		c0.23-0.57,0.35-1.28,0.35-2.14v-14.98c0.65,3.2,1.41,6.09,2.29,8.68c0.38,1.09,0.81,2.17,1.28,3.26c0.47,1.09,0.98,2.08,1.52,2.97
		c0.54,0.9,1.13,1.65,1.76,2.25c0.63,0.6,1.3,0.99,2,1.17H642.39z M669.04,326.13c-0.41,0.24-0.73,0.61-0.97,1.12
		c-0.24,0.51-0.35,1.26-0.35,2.22v12.11c-0.65-2.67-1.41-5.1-2.29-7.27c-0.38-0.94-0.81-1.86-1.28-2.78
		c-0.47-0.91-0.98-1.74-1.52-2.49c-0.54-0.75-1.13-1.39-1.76-1.92c-0.63-0.53-1.3-0.87-2-1.01H669.04z"/>
	<path class="st0" d="M682.83,326.13c-0.41,0.24-0.73,0.55-0.97,0.95c-0.24,0.4-0.35,0.83-0.35,1.3v28.55c0,0.47,0.12,0.9,0.35,1.3
		c0.23,0.4,0.56,0.71,0.97,0.95h-8.77c0.41-0.23,0.73-0.55,0.97-0.95c0.23-0.4,0.35-0.83,0.35-1.3v-28.55c0-0.47-0.12-0.9-0.35-1.3
		c-0.24-0.4-0.56-0.71-0.97-0.95H682.83z"/>
	<path class="st0" d="M688.07,326.13h7.45v30.79c0,0.47,0.12,0.9,0.35,1.3c0.23,0.4,0.56,0.71,0.97,0.95h-8.77
		c0.41-0.23,0.73-0.55,0.97-0.95c0.23-0.4,0.35-0.83,0.35-1.3v-27.71c0-0.85-0.07-1.52-0.22-2
		C689.03,326.72,688.66,326.36,688.07,326.13z M713.49,336.39c0,1.73-0.37,3.25-1.1,4.54c-0.73,1.29-1.7,2.36-2.89,3.22
		c-1.19,0.85-2.55,1.49-4.1,1.92c-1.54,0.43-3.11,0.64-4.69,0.64c-0.79,0-1.59-0.04-2.38-0.13c0.41-0.09,0.91-0.21,1.5-0.37
		c0.59-0.16,1.19-0.4,1.81-0.71c0.62-0.31,1.23-0.71,1.85-1.19c0.62-0.48,1.17-1.09,1.65-1.81c0.48-0.72,0.87-1.58,1.17-2.58
		c0.29-1,0.44-2.17,0.44-3.52c0-2.08-0.32-3.79-0.95-5.11c-0.63-1.32-1.39-2.36-2.27-3.11c-0.88-0.75-1.8-1.26-2.75-1.52
		c-0.95-0.26-1.77-0.4-2.44-0.4c0.85-0.09,1.7-0.13,2.55-0.13c1.7,0,3.32,0.21,4.85,0.62c1.53,0.41,2.86,1.04,4.01,1.89
		c1.15,0.85,2.06,1.92,2.73,3.22C713.15,333.15,713.49,334.66,713.49,336.39z"/>
	<path class="st0" d="M642.2,367.62h7.45v30.79c0,0.47,0.12,0.9,0.35,1.3c0.23,0.4,0.56,0.71,0.97,0.95h-8.77
		c0.41-0.23,0.73-0.55,0.97-0.95c0.23-0.4,0.35-0.83,0.35-1.3V370.7c0-0.85-0.07-1.52-0.22-2
		C643.16,368.22,642.79,367.86,642.2,367.62z M667.62,377.89c0,1.73-0.37,3.25-1.1,4.54c-0.73,1.29-1.7,2.36-2.89,3.22
		c-1.19,0.85-2.55,1.49-4.1,1.92c-1.54,0.43-3.11,0.64-4.69,0.64c-0.79,0-1.59-0.04-2.38-0.13c0.41-0.09,0.91-0.21,1.5-0.37
		c0.59-0.16,1.19-0.4,1.81-0.71c0.62-0.31,1.23-0.71,1.85-1.19c0.62-0.48,1.17-1.09,1.65-1.81c0.48-0.72,0.87-1.58,1.17-2.58
		c0.29-1,0.44-2.17,0.44-3.52c0-2.08-0.32-3.79-0.95-5.11c-0.63-1.32-1.39-2.36-2.27-3.11c-0.88-0.75-1.8-1.26-2.75-1.52
		c-0.95-0.26-1.77-0.4-2.44-0.4c0.85-0.09,1.7-0.13,2.55-0.13c1.7,0,3.32,0.21,4.85,0.62c1.53,0.41,2.86,1.04,4.01,1.89
		c1.15,0.85,2.06,1.92,2.73,3.22C667.29,374.64,667.62,376.15,667.62,377.89z"/>
	<path class="st0" d="M684.94,367c-0.59,0.26-1.27,0.65-2.05,1.17c-0.78,0.51-1.52,1.38-2.22,2.6c-0.7,1.22-1.31,2.89-1.81,5
		c-0.5,2.11-0.75,4.92-0.75,8.41c0,3.47,0.25,6.26,0.75,8.39c0.5,2.13,1.1,3.8,1.81,5c0.71,1.2,1.45,2.06,2.22,2.58
		c0.78,0.51,1.46,0.9,2.05,1.17c-1.47,0-3-0.34-4.6-1.01c-1.6-0.68-3.07-1.72-4.41-3.13c-1.34-1.41-2.44-3.19-3.3-5.35
		c-0.87-2.16-1.3-4.71-1.3-7.64c0-2.94,0.43-5.48,1.3-7.64c0.87-2.16,1.97-3.94,3.3-5.35c1.34-1.41,2.8-2.46,4.41-3.15
		C681.93,367.35,683.47,367,684.94,367z M689.21,367c1.47,0,3,0.35,4.6,1.04c1.6,0.69,3.07,1.74,4.41,3.15
		c1.34,1.41,2.44,3.19,3.3,5.35c0.87,2.16,1.3,4.71,1.3,7.64c0,2.94-0.43,5.48-1.3,7.64c-0.87,2.16-1.97,3.94-3.3,5.35
		c-1.34,1.41-2.8,2.45-4.41,3.13c-1.6,0.68-3.14,1.01-4.6,1.01c0.59-0.26,1.27-0.65,2.05-1.17c0.78-0.51,1.52-1.37,2.22-2.58
		c0.71-1.2,1.3-2.87,1.78-5c0.48-2.13,0.73-4.93,0.73-8.39c0-3.49-0.24-6.3-0.73-8.41c-0.48-2.11-1.08-3.78-1.78-5
		c-0.71-1.22-1.45-2.08-2.22-2.6C690.48,367.66,689.8,367.27,689.21,367z"/>
	<path class="st0" d="M711.54,367.62c1.15,0,2.23,0.26,3.26,0.77c1.03,0.51,1.88,1.24,2.56,2.18L733.88,393v8.24h-0.66l-21.98-29.69
		c-0.76-1.06-1.47-1.9-2.11-2.53c-0.65-0.63-1.44-1.09-2.38-1.39H711.54z M708.64,400.66c0.41-0.23,0.73-0.64,0.97-1.21
		c0.23-0.57,0.35-1.28,0.35-2.14v-14.98c0.65,3.2,1.41,6.09,2.29,8.68c0.38,1.09,0.81,2.17,1.28,3.26c0.47,1.09,0.98,2.08,1.52,2.97
		c0.54,0.9,1.13,1.65,1.76,2.25c0.63,0.6,1.3,0.99,2,1.17H708.64z M735.29,367.62c-0.41,0.24-0.73,0.61-0.97,1.12
		c-0.24,0.51-0.35,1.26-0.35,2.22v12.11c-0.65-2.67-1.41-5.1-2.29-7.27c-0.38-0.94-0.81-1.86-1.28-2.78
		c-0.47-0.91-0.98-1.74-1.52-2.49c-0.54-0.75-1.13-1.39-1.76-1.92c-0.63-0.53-1.3-0.87-2-1.01H735.29z"/>
	<g>
		<circle class="st0" cx="730.34" cy="342.65" r="4.95"/>
	</g>
</g>
</svg>
